<?xml version="1.0" encoding="utf-8"?>
<!-- Generator: Adobe Illustrator 27.0.1, SVG Export Plug-In . SVG Version: 6.00 Build 0)  -->
<svg version="1.1" id="Layer_2_00000000211454963329271290000006008090015602324643_"
	 xmlns="http://www.w3.org/2000/svg" xmlns:xlink="http://www.w3.org/1999/xlink" x="0px" y="0px" viewBox="0 0 570.2 570.2"
	 style="enable-background:new 0 0 570.2 570.2;" xml:space="preserve">
<style type="text/css">
	.st0{display:none;}
	.st1{display:inline;fill:#31302E;}
	.st2{display:none;fill:#31302E;stroke:#31302E;stroke-width:22;stroke-linecap:round;stroke-linejoin:round;stroke-miterlimit:10;}
	
		.st3{display:inline;fill:#31302E;stroke:#31302E;stroke-width:30;stroke-linecap:round;stroke-linejoin:round;stroke-miterlimit:10;}
	
		.st4{display:inline;fill:#31302E;stroke:#31302E;stroke-width:22;stroke-linecap:round;stroke-linejoin:round;stroke-miterlimit:10;}
	.st5{fill:none;stroke:#31302E;stroke-width:30;stroke-linecap:round;stroke-miterlimit:10;}
</style>
<g class="st0">
	<path class="st1" d="M385.1,248.4c13.1,0,25.4,5.1,34.7,14.5s14.5,21.7,14.5,34.7v90.3c0,13.1-5.1,25.4-14.5,34.7
		s-21.7,14.5-34.7,14.5h-200c-13.1,0-25.4-5.1-34.7-14.5c-9.3-9.3-14.5-21.7-14.5-34.7v-90.3c0-13.1,5.1-25.4,14.5-34.7
		c9.3-9.3,21.7-14.5,34.7-14.5H385.1 M385.1,218.4h-200c-43.6,0-79.2,35.6-79.2,79.2v90.3c0,43.6,35.6,79.2,79.2,79.2h200
		c43.6,0,79.2-35.6,79.2-79.2v-90.3C464.3,254,428.7,218.4,385.1,218.4L385.1,218.4z"/>
</g>
<path class="st2" d="M330,395.4l-97.6-97.6c-2.1-2.1-2.1-5.6,0-7.8v0c2.1-2.1,5.6-2.1,7.8,0l97.6,97.6c2.1,2.1,2.1,5.6,0,7.8l0,0
	C335.6,397.5,332.1,397.5,330,395.4z"/>
<g class="st0">
	<path class="st3" d="M452.3,159.9h-42v-42.4c0-9.5-6.7-17.8-16.1-19.2c-11.7-1.8-21.9,7.4-21.9,18.8v42.8H216.9v-42.8
		c0-10.5-8.6-19-19-19h0c-10.4,0-19,8.5-19,19v42.8h-61c-6.6,0-12,5.4-12,12v283.2c0,6.6,5.4,12,12,12h334.4c6.6,0,12-5.4,12-12
		V171.9C464.3,165.3,458.9,159.9,452.3,159.9z M449,439.1c0,6.6-5.4,12-12,12H131.6c-6.6,0-12-5.4-12-12V244c0-6.6,5.4-12,12-12H437
		c6.6,0,12,5.4,12,12V439.1z"/>
	<path class="st4" d="M337.8,297.8l-97.6,97.6c-2.1,2.1-5.6,2.1-7.8,0v0c-2.1-2.1-2.1-5.6,0-7.8L330,290c2.1-2.1,5.6-2.1,7.8,0l0,0
		C339.9,292.2,339.9,295.7,337.8,297.8z"/>
</g>
<circle class="st5" cx="185.1" cy="189.9" r="80.1"/>
<circle class="st5" cx="383.4" cy="189.9" r="80.1"/>
<circle class="st5" cx="185.1" cy="387" r="80.1"/>
<circle class="st5" cx="383.4" cy="387" r="80.1"/>
</svg>
