<?xml version="1.0" encoding="utf-8"?>
<!-- Generator: Adobe Illustrator 27.0.0, SVG Export Plug-In . SVG Version: 6.00 Build 0)  -->
<svg version="1.1" id="Layer_2_00000000211454963329271290000006008090015602324643_"
	 xmlns="http://www.w3.org/2000/svg" xmlns:xlink="http://www.w3.org/1999/xlink" x="0px" y="0px" viewBox="0 0 570.2 570.2"
	 style="enable-background:new 0 0 570.2 570.2;" xml:space="preserve">
<style type="text/css">
	.st0{fill:none;stroke:#31302E;stroke-width:35;stroke-linecap:round;stroke-miterlimit:10;}
	.st1{fill:none;stroke:#31302E;stroke-width:30;stroke-linecap:round;stroke-miterlimit:10;}
	.st2{fill:#31302E;}
</style>
<path class="st0" d="M203.4,223v-54.5c0-45.1,36.6-81.7,81.7-81.7s81.7,36.6,81.7,81.7V193"/>
<path class="st1" d="M324.7,145.1"/>
<path class="st1" d="M178.6,329.9"/>
<path class="st1" d="M376.6,446.5h-183c-22.5,0-40.7-18.2-40.7-40.7V276.7c0-22.5,18.2-40.7,40.7-40.7h183
	c22.5,0,40.7,18.2,40.7,40.7v129.1C417.3,428.3,399.1,446.5,376.6,446.5z"/>
<path class="st2" d="M287.1,352.9h-13.6c-14.9,0-27.1-12.2-27.1-27.1v-13.6c0-14.9,12.2-27.1,27.1-27.1h13.6
	c14.9,0,27.1,12.2,27.1,27.1v13.6C314.2,340.7,302,352.9,287.1,352.9z"/>
<path class="st2" d="M275,332.3h10.6c6.6,0,12,5.4,12,12v30c0,6.6-5.4,12-12,12H275c-6.6,0-12-5.4-12-12v-30
	C263,337.7,268.4,332.3,275,332.3z"/>
</svg>
