<?xml version="1.0" encoding="utf-8"?>
<!-- Generator: Adobe Illustrator 27.0.1, SVG Export Plug-In . SVG Version: 6.00 Build 0)  -->
<svg version="1.1" id="Layer_2_00000000211454963329271290000006008090015602324643_"
	 xmlns="http://www.w3.org/2000/svg" xmlns:xlink="http://www.w3.org/1999/xlink" x="0px" y="0px" viewBox="0 0 570.2 570.2"
	 style="enable-background:new 0 0 570.2 570.2;" xml:space="preserve">
<style type="text/css">
	.st0{fill:#31302E;stroke:#31302E;stroke-width:27;stroke-linecap:round;stroke-linejoin:round;stroke-miterlimit:10;}
	.st1{fill:none;stroke:#31302E;stroke-width:30;stroke-linecap:round;stroke-miterlimit:10;}
</style>
<path class="st0" d="M442.7,187.8H290.6c-3,0-5.5-2.5-5.5-5.5v0c0-3,2.5-5.5,5.5-5.5h152.1c3,0,5.5,2.5,5.5,5.5v0
	C448.2,185.3,445.8,187.8,442.7,187.8z"/>
<path class="st0" d="M442.7,240.1H290.6c-3,0-5.5-2.5-5.5-5.5v0c0-3,2.5-5.5,5.5-5.5h152.1c3,0,5.5,2.5,5.5,5.5v0
	C448.2,237.6,445.8,240.1,442.7,240.1z"/>
<path class="st0" d="M442.7,292.3H290.6c-3,0-5.5-2.5-5.5-5.5l0,0c0-3,2.5-5.5,5.5-5.5h152.1c3,0,5.5,2.5,5.5,5.5l0,0
	C448.2,289.8,445.8,292.3,442.7,292.3z"/>
<path class="st0" d="M332.4,344.6H153.2c-3,0-5.5-2.5-5.5-5.5l0,0c0-3,2.5-5.5,5.5-5.5h179.2c3,0,5.5,2.5,5.5,5.5l0,0
	C337.9,342.1,335.5,344.6,332.4,344.6z"/>
<path class="st0" d="M442.7,344.6H263.5c-3,0-5.5-2.5-5.5-5.5l0,0c0-3,2.5-5.5,5.5-5.5h179.2c3,0,5.5,2.5,5.5,5.5l0,0
	C448.2,342.1,445.8,344.6,442.7,344.6z"/>
<path class="st0" d="M333.8,396.8H154.6c-3,0-5.5-2.5-5.5-5.5l0,0c0-3,2.5-5.5,5.5-5.5h179.2c3,0,5.5,2.5,5.5,5.5l0,0
	C339.3,394.3,336.9,396.8,333.8,396.8z"/>
<path class="st0" d="M444.2,396.8H265c-3,0-5.5-2.5-5.5-5.5l0,0c0-3,2.5-5.5,5.5-5.5h179.2c3,0,5.5,2.5,5.5,5.5l0,0
	C449.7,394.3,447.2,396.8,444.2,396.8z"/>
<circle class="st1" cx="189.5" cy="229.4" r="57.4"/>
</svg>
