<svg width="44" height="85" viewBox="0 0 44 85" fill="none" xmlns="http://www.w3.org/2000/svg">
<path fill-rule="evenodd" clip-rule="evenodd" d="M32.335 43.3041C30.1031 44.5458 27.6905 45.372 25.2049 45.7546V59.8111H18V46.9349C16.9381 47.2431 15.9081 47.6742 14.9296 48.223C12.7555 49.4425 10.9038 51.2054 9.53946 53.3546C8.17515 55.5038 7.34066 57.9726 7.11038 60.5407C6.88009 63.1089 7.26117 65.6968 8.21964 68.0736C9.17811 70.4505 10.6842 72.5425 12.6036 74.1632C14.5231 75.7839 16.7963 76.8829 19.2206 77.3623C21.6449 77.8417 24.145 77.6866 26.498 76.9107C28.851 76.1349 30.9839 74.7625 32.7065 72.9158L37.7503 78.0582C35.2162 80.7748 32.0785 82.7937 28.617 83.935C25.1554 85.0763 21.4776 85.3045 17.9112 84.5993C14.3449 83.894 11.0008 82.2773 8.17712 79.8931C5.35343 77.5089 3.13785 74.4314 1.72786 70.9348C0.317872 67.4383 -0.242725 63.6313 0.096042 59.8533C0.434809 56.0753 1.66241 52.4436 3.66944 49.2819C5.67646 46.1202 8.40054 43.5268 11.5989 41.7328C13.6107 40.6044 15.7708 39.8143 18 39.3834V7.93495C17.9478 7.9501 17.8956 7.96556 17.8435 7.98132C15.49 8.69322 13.3399 9.99873 11.5821 11.7831L6.67436 6.49888C9.26017 3.87398 12.4232 1.95346 15.8855 0.90619C19.3477 -0.141078 23.003 -0.283017 26.53 0.492853C30.057 1.26872 33.3476 2.93864 36.1125 5.35576C38.8775 7.77289 41.0321 10.8632 42.3868 14.3549C43.7415 17.8467 44.2549 21.6329 43.8818 25.3807C43.5088 29.1285 42.2606 32.7231 40.2472 35.8484C38.2338 38.9737 35.5168 41.534 32.335 43.3041ZM25.2049 7.72855V38.2714C26.5316 37.9671 27.8175 37.4741 29.0254 36.8021C31.1883 35.5988 33.0352 33.8584 34.4039 31.7339C35.7726 29.6095 36.621 27.166 36.8746 24.6183C37.1282 22.0707 36.7792 19.4969 35.8583 17.1234C34.9374 14.7498 33.4728 12.6491 31.5933 11.006C29.7466 9.39163 27.5549 8.26759 25.2049 7.72855Z" fill="#31302E"/>
</svg>
