<?xml version="1.0" encoding="utf-8"?>
<!-- Generator: Adobe Illustrator 26.5.0, SVG Export Plug-In . SVG Version: 6.00 Build 0)  -->
<svg version="1.1" id="Layer_3" xmlns="http://www.w3.org/2000/svg" xmlns:xlink="http://www.w3.org/1999/xlink" x="0px" y="0px"
	 viewBox="0 0 570.2 570.2" style="enable-background:new 0 0 570.2 570.2;" xml:space="preserve">
    <style type="text/css">
        .st0{fill-rule:evenodd;clip-rule:evenodd;fill:#31302E;}
    </style>
    <path class="st0" d="M429.1,96.3C390.8-3.8,252-32.3,176.8,43.6L211.5,79c12.7-12.2,28.3-21.1,45.4-25.8v211
        c-94.5,14.7-154.8,124.3-115,211.6c40,100.3,180.8,126.4,254.5,47.8l-35.6-34.5c-50.1,53.4-145.9,35.7-173-32.5
        c-25.5-56.1,9.5-127,69.1-141.8v86.4h50.9v-94.3c17.6-2.6,34.6-8.1,50.4-16.4h0v0C426.9,255.7,459.6,167.2,429.1,96.3z M390.2,165.1
        c-4.1,44.2-39,82.7-82.4,91.6c0,0,0-204.9,0-204.9c0,0,0,0,0,0h0v0C358.9,62,396.6,113.4,390.2,165.1z"/>
</svg>
