<?xml version="1.0" encoding="utf-8"?>
<!-- Generator: Adobe Illustrator 27.0.1, SVG Export Plug-In . SVG Version: 6.00 Build 0)  -->
<svg version="1.1" id="Layer_2_00000000211454963329271290000006008090015602324643_"
	 xmlns="http://www.w3.org/2000/svg" xmlns:xlink="http://www.w3.org/1999/xlink" x="0px" y="0px" viewBox="0 0 570.2 570.2"
	 style="enable-background:new 0 0 570.2 570.2;" xml:space="preserve">
<style type="text/css">
	.st0{fill:#31302E;stroke:#31302E;stroke-width:20;stroke-linecap:round;stroke-linejoin:round;stroke-miterlimit:10;}
	.st1{fill:none;stroke:#31302E;stroke-width:30;stroke-linecap:round;stroke-miterlimit:10;}
</style>
<path class="st0" d="M283.9,172v104.1c0,3-2.5,5.5-5.5,5.5h-3.9c-3,0-5.5-2.5-5.5-5.5V172c0-3,2.5-5.5,5.5-5.5h3.9
	C281.4,166.5,283.9,169,283.9,172z"/>
<circle class="st1" cx="282.4" cy="276.6" r="178.5"/>
<path class="st0" d="M345.1,355.6L271.5,282c-2.1-2.1-2.1-5.6,0-7.8l2.8-2.8c2.1-2.1,5.6-2.1,7.8,0l73.6,73.6c2.1,2.1,2.1,5.6,0,7.8
	l-2.8,2.8C350.8,357.7,347.3,357.7,345.1,355.6z"/>
</svg>
