<?xml version="1.0" encoding="UTF-8"?><svg id="Layer_3" xmlns="http://www.w3.org/2000/svg" viewBox="0 0 570.2 570.2"><defs><style>.cls-1{fill:#31302e;fill-rule:evenodd;}</style></defs><path class="cls-1" d="M350.49,301.15c-14.12,7.86-29.39,13.08-45.11,15.5v88.94h-45.59v-81.47c-6.72,1.95-13.24,4.68-19.43,8.15-13.76,7.72-25.47,18.87-34.1,32.47-8.63,13.6-13.91,29.22-15.37,45.47-1.46,16.25,.95,32.62,7.02,47.66,6.06,15.04,15.59,28.28,27.74,38.53,12.14,10.25,26.53,17.21,41.87,20.24s31.16,2.05,46.04-2.86c14.89-4.91,28.38-13.59,39.28-25.28l31.91,32.54c-16.03,17.19-35.89,29.96-57.79,37.18-21.9,7.22-45.17,8.66-67.74,4.2-22.56-4.46-43.72-14.69-61.59-29.78-17.87-15.09-31.88-34.56-40.81-56.68-8.92-22.12-12.47-46.21-10.32-70.11,2.14-23.9,9.91-46.88,22.61-66.89,12.7-20,29.93-36.41,50.17-47.76,12.73-7.14,26.4-12.14,40.5-14.86V77.36c-.33,.1-.66,.19-.99,.29-14.89,4.5-28.49,12.76-39.62,24.05l-31.05-33.43c16.36-16.61,36.37-28.76,58.28-35.39,21.91-6.63,45.03-7.52,67.35-2.62,22.32,4.91,43.14,15.47,60.63,30.77,17.49,15.29,31.13,34.85,39.7,56.94,8.57,22.09,11.82,46.05,9.46,69.76-2.36,23.71-10.26,46.46-23,66.23-12.74,19.77-29.93,35.97-50.06,47.17Zm-45.11-225.09v193.25c8.39-1.93,16.53-5.04,24.17-9.3,13.68-7.61,25.37-18.63,34.03-32.07,8.66-13.44,14.03-28.9,15.63-45.02,1.6-16.12-.6-32.4-6.43-47.42-5.83-15.02-15.09-28.31-26.99-38.71-11.68-10.21-25.55-17.33-40.42-20.74Z"/></svg>